<mxfile host="app.diagrams.net" modified="2023-04-29T00:56:43.120Z" agent="Mozilla/5.0 (Windows NT 10.0; Win64; x64; rv:109.0) Gecko/20100101 Firefox/112.0" etag="RpmkNXTkF5ZQuALBoml2" version="21.2.3" type="device">
  <diagram name="Page-1" id="aas672YwQk-0MgA5ubcF">
    <mxGraphModel dx="1366" dy="696" grid="1" gridSize="10" guides="1" tooltips="1" connect="1" arrows="1" fold="1" page="1" pageScale="1" pageWidth="1200" pageHeight="1600" math="0" shadow="0">
      <root>
        <mxCell id="0" />
        <mxCell id="1" parent="0" />
        <mxCell id="0O_5AEte1-7F4LtiwX9_-39" value="" style="edgeStyle=orthogonalEdgeStyle;rounded=0;orthogonalLoop=1;jettySize=auto;html=1;" edge="1" parent="1" source="vzzCDepZhQNcNllD5PRw-27" target="0O_5AEte1-7F4LtiwX9_-1">
          <mxGeometry relative="1" as="geometry" />
        </mxCell>
        <mxCell id="vzzCDepZhQNcNllD5PRw-27" value="Start" style="strokeWidth=2;html=1;shape=mxgraph.flowchart.terminator;whiteSpace=wrap;" parent="1" vertex="1">
          <mxGeometry x="550" y="40" width="100" height="60" as="geometry" />
        </mxCell>
        <mxCell id="0O_5AEte1-7F4LtiwX9_-40" value="" style="edgeStyle=orthogonalEdgeStyle;rounded=0;orthogonalLoop=1;jettySize=auto;html=1;" edge="1" parent="1" source="0O_5AEte1-7F4LtiwX9_-1" target="0O_5AEte1-7F4LtiwX9_-2">
          <mxGeometry relative="1" as="geometry" />
        </mxCell>
        <mxCell id="0O_5AEte1-7F4LtiwX9_-1" value="&lt;div&gt;input&lt;/div&gt;&lt;div&gt;m&lt;br&gt;&lt;/div&gt;" style="shape=parallelogram;html=1;strokeWidth=2;perimeter=parallelogramPerimeter;whiteSpace=wrap;rounded=1;arcSize=12;size=0.23;" vertex="1" parent="1">
          <mxGeometry x="550" y="140" width="100" height="60" as="geometry" />
        </mxCell>
        <mxCell id="0O_5AEte1-7F4LtiwX9_-41" value="" style="edgeStyle=orthogonalEdgeStyle;rounded=0;orthogonalLoop=1;jettySize=auto;html=1;" edge="1" parent="1" source="0O_5AEte1-7F4LtiwX9_-2" target="0O_5AEte1-7F4LtiwX9_-3">
          <mxGeometry relative="1" as="geometry" />
        </mxCell>
        <mxCell id="0O_5AEte1-7F4LtiwX9_-2" value="&lt;div&gt;count = 0&lt;/div&gt;&lt;div&gt;total = 0&lt;/div&gt;&lt;div&gt;number = 2&lt;/div&gt;" style="rounded=1;whiteSpace=wrap;html=1;absoluteArcSize=1;arcSize=14;strokeWidth=2;" vertex="1" parent="1">
          <mxGeometry x="550" y="240" width="100" height="60" as="geometry" />
        </mxCell>
        <mxCell id="0O_5AEte1-7F4LtiwX9_-13" value="" style="edgeStyle=orthogonalEdgeStyle;rounded=0;orthogonalLoop=1;jettySize=auto;html=1;" edge="1" parent="1" source="0O_5AEte1-7F4LtiwX9_-3" target="0O_5AEte1-7F4LtiwX9_-5">
          <mxGeometry relative="1" as="geometry" />
        </mxCell>
        <mxCell id="0O_5AEte1-7F4LtiwX9_-3" value="count &amp;lt; m" style="strokeWidth=2;html=1;shape=mxgraph.flowchart.decision;whiteSpace=wrap;" vertex="1" parent="1">
          <mxGeometry x="550" y="340" width="100" height="100" as="geometry" />
        </mxCell>
        <mxCell id="0O_5AEte1-7F4LtiwX9_-14" value="" style="edgeStyle=orthogonalEdgeStyle;rounded=0;orthogonalLoop=1;jettySize=auto;html=1;" edge="1" parent="1" source="0O_5AEte1-7F4LtiwX9_-5" target="0O_5AEte1-7F4LtiwX9_-6">
          <mxGeometry relative="1" as="geometry" />
        </mxCell>
        <mxCell id="0O_5AEte1-7F4LtiwX9_-5" value="flag = 0" style="rounded=1;whiteSpace=wrap;html=1;absoluteArcSize=1;arcSize=14;strokeWidth=2;" vertex="1" parent="1">
          <mxGeometry x="550" y="480" width="100" height="60" as="geometry" />
        </mxCell>
        <mxCell id="0O_5AEte1-7F4LtiwX9_-15" value="" style="edgeStyle=orthogonalEdgeStyle;rounded=0;orthogonalLoop=1;jettySize=auto;html=1;" edge="1" parent="1" source="0O_5AEte1-7F4LtiwX9_-6" target="0O_5AEte1-7F4LtiwX9_-7">
          <mxGeometry relative="1" as="geometry" />
        </mxCell>
        <mxCell id="0O_5AEte1-7F4LtiwX9_-6" value="i = 2" style="rounded=1;whiteSpace=wrap;html=1;absoluteArcSize=1;arcSize=14;strokeWidth=2;" vertex="1" parent="1">
          <mxGeometry x="550" y="580" width="100" height="60" as="geometry" />
        </mxCell>
        <mxCell id="0O_5AEte1-7F4LtiwX9_-16" value="" style="edgeStyle=orthogonalEdgeStyle;rounded=0;orthogonalLoop=1;jettySize=auto;html=1;" edge="1" parent="1" source="0O_5AEte1-7F4LtiwX9_-7" target="0O_5AEte1-7F4LtiwX9_-8">
          <mxGeometry relative="1" as="geometry" />
        </mxCell>
        <mxCell id="0O_5AEte1-7F4LtiwX9_-38" style="edgeStyle=orthogonalEdgeStyle;rounded=0;orthogonalLoop=1;jettySize=auto;html=1;exitX=0;exitY=0.5;exitDx=0;exitDy=0;exitPerimeter=0;entryX=0;entryY=0.5;entryDx=0;entryDy=0;" edge="1" parent="1" source="0O_5AEte1-7F4LtiwX9_-7" target="0O_5AEte1-7F4LtiwX9_-30">
          <mxGeometry relative="1" as="geometry">
            <Array as="points">
              <mxPoint x="510" y="730" />
              <mxPoint x="510" y="1430" />
            </Array>
          </mxGeometry>
        </mxCell>
        <mxCell id="0O_5AEte1-7F4LtiwX9_-7" value="i &amp;lt; = number / 2" style="strokeWidth=2;html=1;shape=mxgraph.flowchart.decision;whiteSpace=wrap;" vertex="1" parent="1">
          <mxGeometry x="550" y="680" width="100" height="100" as="geometry" />
        </mxCell>
        <mxCell id="0O_5AEte1-7F4LtiwX9_-17" value="" style="edgeStyle=orthogonalEdgeStyle;rounded=0;orthogonalLoop=1;jettySize=auto;html=1;" edge="1" parent="1" source="0O_5AEte1-7F4LtiwX9_-8" target="0O_5AEte1-7F4LtiwX9_-9">
          <mxGeometry relative="1" as="geometry" />
        </mxCell>
        <mxCell id="0O_5AEte1-7F4LtiwX9_-20" style="edgeStyle=orthogonalEdgeStyle;rounded=0;orthogonalLoop=1;jettySize=auto;html=1;exitX=1;exitY=0.5;exitDx=0;exitDy=0;exitPerimeter=0;entryX=0.5;entryY=1;entryDx=0;entryDy=0;" edge="1" parent="1" source="0O_5AEte1-7F4LtiwX9_-8" target="0O_5AEte1-7F4LtiwX9_-19">
          <mxGeometry relative="1" as="geometry" />
        </mxCell>
        <mxCell id="0O_5AEte1-7F4LtiwX9_-35" style="edgeStyle=orthogonalEdgeStyle;rounded=0;orthogonalLoop=1;jettySize=auto;html=1;exitX=0;exitY=0.5;exitDx=0;exitDy=0;exitPerimeter=0;" edge="1" parent="1" source="0O_5AEte1-7F4LtiwX9_-8" target="0O_5AEte1-7F4LtiwX9_-10">
          <mxGeometry relative="1" as="geometry">
            <Array as="points">
              <mxPoint x="530" y="870" />
              <mxPoint x="530" y="1040" />
              <mxPoint x="600" y="1040" />
            </Array>
          </mxGeometry>
        </mxCell>
        <mxCell id="0O_5AEte1-7F4LtiwX9_-8" value="number % i == 0" style="strokeWidth=2;html=1;shape=mxgraph.flowchart.decision;whiteSpace=wrap;" vertex="1" parent="1">
          <mxGeometry x="550" y="820" width="100" height="100" as="geometry" />
        </mxCell>
        <mxCell id="0O_5AEte1-7F4LtiwX9_-22" value="" style="edgeStyle=orthogonalEdgeStyle;rounded=0;orthogonalLoop=1;jettySize=auto;html=1;" edge="1" parent="1" source="0O_5AEte1-7F4LtiwX9_-9" target="0O_5AEte1-7F4LtiwX9_-10">
          <mxGeometry relative="1" as="geometry" />
        </mxCell>
        <mxCell id="0O_5AEte1-7F4LtiwX9_-9" value="flag = 1" style="rounded=1;whiteSpace=wrap;html=1;absoluteArcSize=1;arcSize=14;strokeWidth=2;" vertex="1" parent="1">
          <mxGeometry x="550" y="960" width="100" height="60" as="geometry" />
        </mxCell>
        <mxCell id="0O_5AEte1-7F4LtiwX9_-23" value="" style="edgeStyle=orthogonalEdgeStyle;rounded=0;orthogonalLoop=1;jettySize=auto;html=1;" edge="1" parent="1" source="0O_5AEte1-7F4LtiwX9_-10" target="0O_5AEte1-7F4LtiwX9_-11">
          <mxGeometry relative="1" as="geometry" />
        </mxCell>
        <mxCell id="0O_5AEte1-7F4LtiwX9_-27" style="edgeStyle=orthogonalEdgeStyle;rounded=0;orthogonalLoop=1;jettySize=auto;html=1;exitX=1;exitY=0.5;exitDx=0;exitDy=0;exitPerimeter=0;entryX=0.5;entryY=1;entryDx=0;entryDy=0;" edge="1" parent="1" source="0O_5AEte1-7F4LtiwX9_-10" target="0O_5AEte1-7F4LtiwX9_-26">
          <mxGeometry relative="1" as="geometry" />
        </mxCell>
        <mxCell id="0O_5AEte1-7F4LtiwX9_-10" value="flag == 0" style="strokeWidth=2;html=1;shape=mxgraph.flowchart.decision;whiteSpace=wrap;" vertex="1" parent="1">
          <mxGeometry x="550" y="1060" width="100" height="100" as="geometry" />
        </mxCell>
        <mxCell id="0O_5AEte1-7F4LtiwX9_-24" value="" style="edgeStyle=orthogonalEdgeStyle;rounded=0;orthogonalLoop=1;jettySize=auto;html=1;" edge="1" parent="1" source="0O_5AEte1-7F4LtiwX9_-11" target="0O_5AEte1-7F4LtiwX9_-12">
          <mxGeometry relative="1" as="geometry" />
        </mxCell>
        <mxCell id="0O_5AEte1-7F4LtiwX9_-11" value="&lt;div&gt;print&lt;/div&gt;&lt;div&gt;number&lt;br&gt;&lt;/div&gt;" style="shape=parallelogram;html=1;strokeWidth=2;perimeter=parallelogramPerimeter;whiteSpace=wrap;rounded=1;arcSize=12;size=0.23;" vertex="1" parent="1">
          <mxGeometry x="550" y="1200" width="100" height="60" as="geometry" />
        </mxCell>
        <mxCell id="0O_5AEte1-7F4LtiwX9_-33" style="edgeStyle=orthogonalEdgeStyle;rounded=0;orthogonalLoop=1;jettySize=auto;html=1;exitX=1;exitY=0.5;exitDx=0;exitDy=0;entryX=0.5;entryY=1;entryDx=0;entryDy=0;" edge="1" parent="1" source="0O_5AEte1-7F4LtiwX9_-12" target="0O_5AEte1-7F4LtiwX9_-26">
          <mxGeometry relative="1" as="geometry" />
        </mxCell>
        <mxCell id="0O_5AEte1-7F4LtiwX9_-12" value="&lt;div&gt;total += number&lt;/div&gt;&lt;div&gt;count ++&lt;br&gt;&lt;/div&gt;" style="rounded=1;whiteSpace=wrap;html=1;absoluteArcSize=1;arcSize=14;strokeWidth=2;" vertex="1" parent="1">
          <mxGeometry x="550" y="1300" width="100" height="60" as="geometry" />
        </mxCell>
        <mxCell id="0O_5AEte1-7F4LtiwX9_-21" value="" style="edgeStyle=orthogonalEdgeStyle;rounded=0;orthogonalLoop=1;jettySize=auto;html=1;" edge="1" parent="1" source="0O_5AEte1-7F4LtiwX9_-19" target="0O_5AEte1-7F4LtiwX9_-7">
          <mxGeometry relative="1" as="geometry" />
        </mxCell>
        <mxCell id="0O_5AEte1-7F4LtiwX9_-19" value="++i" style="rounded=1;whiteSpace=wrap;html=1;absoluteArcSize=1;arcSize=14;strokeWidth=2;" vertex="1" parent="1">
          <mxGeometry x="680" y="700" width="100" height="60" as="geometry" />
        </mxCell>
        <mxCell id="0O_5AEte1-7F4LtiwX9_-28" value="" style="edgeStyle=orthogonalEdgeStyle;rounded=0;orthogonalLoop=1;jettySize=auto;html=1;" edge="1" parent="1" source="0O_5AEte1-7F4LtiwX9_-26" target="0O_5AEte1-7F4LtiwX9_-3">
          <mxGeometry relative="1" as="geometry" />
        </mxCell>
        <mxCell id="0O_5AEte1-7F4LtiwX9_-26" value="number++" style="rounded=1;whiteSpace=wrap;html=1;absoluteArcSize=1;arcSize=14;strokeWidth=2;" vertex="1" parent="1">
          <mxGeometry x="750" y="360" width="100" height="60" as="geometry" />
        </mxCell>
        <mxCell id="0O_5AEte1-7F4LtiwX9_-32" value="" style="edgeStyle=orthogonalEdgeStyle;rounded=0;orthogonalLoop=1;jettySize=auto;html=1;" edge="1" parent="1" source="0O_5AEte1-7F4LtiwX9_-30" target="0O_5AEte1-7F4LtiwX9_-31">
          <mxGeometry relative="1" as="geometry" />
        </mxCell>
        <mxCell id="0O_5AEte1-7F4LtiwX9_-30" value="print total" style="shape=parallelogram;html=1;strokeWidth=2;perimeter=parallelogramPerimeter;whiteSpace=wrap;rounded=1;arcSize=12;size=0.23;" vertex="1" parent="1">
          <mxGeometry x="550" y="1400" width="100" height="60" as="geometry" />
        </mxCell>
        <mxCell id="0O_5AEte1-7F4LtiwX9_-31" value="End" style="strokeWidth=2;html=1;shape=mxgraph.flowchart.terminator;whiteSpace=wrap;" vertex="1" parent="1">
          <mxGeometry x="550" y="1500" width="100" height="60" as="geometry" />
        </mxCell>
      </root>
    </mxGraphModel>
  </diagram>
</mxfile>
